<?xml version="1.0"?>
<svg xmlns="http://www.w3.org/2000/svg" viewBox="0 0 250 90" width="250" height="90"><defs><style>.cls-1{fill:none;}.cls-2{fill:#222221;}.cls-3{fill:#b5bd31;}</style></defs><g id="Livello_2" data-name="Livello 2"><g id="Livello_1-2" data-name="Livello 1"><rect class="cls-1" width="250" height="90"/><path class="cls-2" d="M32.46,63.23a2.7,2.7,0,0,0,1-.25,2.85,2.85,0,0,0,.85-.6,3,3,0,0,0,.56-.87,2.76,2.76,0,0,0,.21-1.07,2.71,2.71,0,0,0-.21-1.06,2.77,2.77,0,0,0-.56-.87,3.07,3.07,0,0,0-.85-.61,2.89,2.89,0,0,0-1-.25v5.58m6-2.78A5.9,5.9,0,0,1,38,62.82a6,6,0,0,1-1.3,1.95,6.22,6.22,0,0,1-1.93,1.33,5.8,5.8,0,0,1-2.35.51V69H29.08V54.27h3.38a6,6,0,0,1,2.35.52,6.42,6.42,0,0,1,1.93,1.34A6,6,0,0,1,38,58.08,5.9,5.9,0,0,1,38.51,60.45Z"/><polyline class="cls-2" points="49.37 57.65 43.89 57.65 43.89 59.87 48.23 59.87 48.23 63.25 43.89 63.25 43.89 68.95 40.51 68.95 40.51 54.27 49.37 54.27 49.37 57.65"/><polyline class="cls-2" points="63.36 57.65 57.33 57.65 57.33 59.87 62.22 59.87 62.22 63.25 57.33 63.25 57.33 65.57 63.36 65.57 63.36 68.95 53.95 68.95 53.95 54.29 63.36 54.27 63.36 57.65"/><path class="cls-2" d="M70.68,69a5.6,5.6,0,0,1-2.12-.41,5.5,5.5,0,0,1-1.78-1.17,5.77,5.77,0,0,1-1.23-1.8,5.89,5.89,0,0,1-.45-2.14V54.25h3.38v9.16A2.11,2.11,0,0,0,69.14,65a2.22,2.22,0,0,0,1.56.62,2,2,0,0,0,.84-.18,2.29,2.29,0,0,0,.7-.48,2.08,2.08,0,0,0,.46-.7,2.23,2.23,0,0,0,.16-.86v-9.1h3.38v9.08a5.26,5.26,0,0,1-.41,2.16,5.61,5.61,0,0,1-2.94,3,5.39,5.39,0,0,1-2.15.47h-.06"/><path class="cls-2" d="M81.64,61.85a3.24,3.24,0,0,0,1-.19,3.06,3.06,0,0,0,.86-.45,2.11,2.11,0,0,0,.58-.65,1.56,1.56,0,0,0,.21-.79,1.52,1.52,0,0,0-.21-.78,2.33,2.33,0,0,0-.58-.64,3.68,3.68,0,0,0-.86-.45,3.91,3.91,0,0,0-1-.19v4.14m1.06,3.3-.52.06-.54,0V69H78.26V54.33h3.38A6.58,6.58,0,0,1,85.93,56a5.59,5.59,0,0,1,1.3,1.72,5,5,0,0,1,0,4.28,5.21,5.21,0,0,1-1.39,1.75L89,69h-4Z"/><path class="cls-2" d="M96.85,65.55a3.78,3.78,0,0,0,1.54-.31,4,4,0,0,0,2.11-2.11,4,4,0,0,0,0-3.08,4,4,0,0,0-2.11-2.11,4,4,0,0,0-3.08,0,4,4,0,0,0-2.11,2.11,4,4,0,0,0,0,3.08,4,4,0,0,0,2.11,2.11,3.78,3.78,0,0,0,1.54.31m0-11.3a7.27,7.27,0,0,1,2.86.58A7.53,7.53,0,0,1,102,56.4a7.39,7.39,0,0,1,1.58,2.33,7.34,7.34,0,0,1,0,5.72A7.39,7.39,0,0,1,102,66.78a7.53,7.53,0,0,1-2.33,1.57,7.1,7.1,0,0,1-2.86.58A7,7,0,0,1,94,68.35a7.42,7.42,0,0,1-2.33-1.57,7.53,7.53,0,0,1-1.57-2.33,7.34,7.34,0,0,1,0-5.72,7.53,7.53,0,0,1,1.57-2.33A7.42,7.42,0,0,1,94,54.83,7.19,7.19,0,0,1,96.84,54.25Z"/><rect class="cls-2" x="105.21" y="54.25" width="3.38" height="14.69"/><polyline class="cls-2" points="120.38 54.25 123.86 54.25 124.72 68.95 121.34 68.95 120.98 62.95 118.94 68.95 115.56 68.95 113.41 62.71 113 68.95 109.61 68.95 110.55 54.25 114.03 54.25 117.24 63.45 120.38 54.25"/><path class="cls-2" d="M129.12,63.23a2.7,2.7,0,0,0,1-.25,2.73,2.73,0,0,0,.85-.6,2.85,2.85,0,0,0,.57-.87,2.76,2.76,0,0,0,.21-1.07,2.71,2.71,0,0,0-.21-1.06,2.63,2.63,0,0,0-.57-.87,2.93,2.93,0,0,0-.85-.61,2.89,2.89,0,0,0-1-.25v5.58m6.06-2.78a6.07,6.07,0,0,1-.47,2.37,6.34,6.34,0,0,1-1.3,1.95,6.46,6.46,0,0,1-1.93,1.33,5.85,5.85,0,0,1-2.36.51V69h-3.38V54.27h3.38a6,6,0,0,1,2.36.52,6.68,6.68,0,0,1,1.93,1.34,6.34,6.34,0,0,1,1.3,1.95A6.07,6.07,0,0,1,135.18,60.45Z"/><rect class="cls-2" x="137.18" y="54.25" width="3.38" height="14.69"/><path class="cls-2" d="M146.91,63.79h2.38l-1.16-3.56-1.22,3.56M151,69l-.58-1.78h-4.62l-.6,1.78h-3.58l5-14.68h3.2L154.51,69Z"/><polyline class="cls-2" points="163.97 54.27 167.34 54.27 167.34 68.95 163.69 68.95 158.89 60.39 158.89 68.95 155.51 68.95 155.51 54.31 159.19 54.31 163.97 62.85 163.97 54.27"/><polyline class="cls-2" points="177.62 54.21 177.62 57.59 174.8 57.59 174.8 68.95 171.42 68.95 171.42 57.59 168.62 57.59 168.62 54.21 177.62 54.21"/><rect class="cls-2" x="179.06" y="54.25" width="3.38" height="14.69"/><path class="cls-2" d="M192.92,57.25h0a.71.71,0,0,0-.33.12,1.37,1.37,0,0,0-.21.2.37.37,0,0,0-.08.28.35.35,0,0,0,0,.16.79.79,0,0,0,.21.28c.11.12.22.24.33.34v0a2.43,2.43,0,0,0,.58-.6.76.76,0,0,0,.09-.17.45.45,0,0,0-.07-.33,1.46,1.46,0,0,1-.16-.17.49.49,0,0,0-.36-.13m-.5,6a4.59,4.59,0,0,0-1,1,.81.81,0,0,0-.13.78.92.92,0,0,0,.27.41,1.07,1.07,0,0,0,.59.19,2.44,2.44,0,0,0,.94-.11A3.77,3.77,0,0,0,194,65ZM192.34,69h-.21l-.21,0a4.39,4.39,0,0,1-2.36-.84,4.17,4.17,0,0,1-1.44-2,4,4,0,0,1-.26-1.67,3.84,3.84,0,0,1,.38-1.43,5.18,5.18,0,0,1,.82-1.23,8.93,8.93,0,0,1,1.08-1,3.68,3.68,0,0,1-.53-.63,3.5,3.5,0,0,1-.43-.79,3.8,3.8,0,0,1,.28-3.5,3.93,3.93,0,0,1,1.35-1.34,4.2,4.2,0,0,1,1.81-.58,4.07,4.07,0,0,1,2.18.45,3.9,3.9,0,0,1,1.57,1.55,3.77,3.77,0,0,1,.52,2.08,3.69,3.69,0,0,1-.68,2,3.19,3.19,0,0,1-.5.6,6.49,6.49,0,0,1-.6.56l4.82,5.36-2.52,2.26-1.1-1.22a6.82,6.82,0,0,1-1.88,1A6.12,6.12,0,0,1,192.34,69Z"/><path class="cls-2" d="M211.67,68.93a7.57,7.57,0,0,1-2.77-.53,7,7,0,0,1-2.43-1.61,7.57,7.57,0,0,1-1.59-2.39,7.5,7.5,0,0,1,0-5.64,7.49,7.49,0,0,1,1.59-2.37,7.14,7.14,0,0,1,2.44-1.62,7.46,7.46,0,0,1,2.77-.54,7.37,7.37,0,0,1,2.76.54,7.19,7.19,0,0,1,2.43,1.62l-2.38,2.38a4.1,4.1,0,0,0-1.32-.87,4.2,4.2,0,0,0-1.5-.29,3.95,3.95,0,0,0-2.8,1.16,4.27,4.27,0,0,0-.86,1.3,3.92,3.92,0,0,0-.3,1.52,3.84,3.84,0,0,0,.3,1.51,4.35,4.35,0,0,0,.86,1.29,3.76,3.76,0,0,0,1.31.87,4.07,4.07,0,0,0,1.49.29,4.2,4.2,0,0,0,1.5-.29,3.79,3.79,0,0,0,1.32-.87l2.38,2.4a7.08,7.08,0,0,1-2.42,1.61,7.59,7.59,0,0,1-2.78.53"/><path class="cls-2" d="M220.88,67.21a1.71,1.71,0,0,1-.5,1.23,1.74,1.74,0,1,1,0-2.46,1.71,1.71,0,0,1,.5,1.23"/><path class="cls-2" d="M73.21,80.57a2.52,2.52,0,0,0,.91-.26,2.37,2.37,0,0,0,.72-.52,2.27,2.27,0,0,0,.49-.75,2.43,2.43,0,0,0,.17-.89,2.7,2.7,0,0,0-.17-.94,2.64,2.64,0,0,0-.49-.78,2.71,2.71,0,0,0-.73-.57,2.41,2.41,0,0,0-.9-.26v5m0-7.09a4.6,4.6,0,0,1,1.72.44,4.78,4.78,0,0,1,1.4,1,4.7,4.7,0,0,1,.94,1.45,4.54,4.54,0,0,1,.34,1.77,4.38,4.38,0,0,1-.34,1.73,4.33,4.33,0,0,1-.93,1.41,4.63,4.63,0,0,1-1.39,1,4.73,4.73,0,0,1-1.74.41H71.1V73.47h2.11Z"/><rect class="cls-2" x="78.1" y="73.51" width="2.11" height="9.18"/><path class="cls-2" d="M85.7,79.12a1.6,1.6,0,0,0,.65-.16,1.68,1.68,0,0,0,.53-.37,1.87,1.87,0,0,0,.36-.55,1.77,1.77,0,0,0,0-1.33,1.81,1.81,0,0,0-.89-.92,1.6,1.6,0,0,0-.65-.16v3.49m3.78-1.74a3.83,3.83,0,0,1-.29,1.48,3.94,3.94,0,0,1-.81,1.22,3.89,3.89,0,0,1-1.21.83,3.66,3.66,0,0,1-1.47.32v1.46H83.59V73.52H85.7a3.67,3.67,0,0,1,1.47.33,3.85,3.85,0,0,1,2,2.05A3.87,3.87,0,0,1,89.48,77.38Z"/><rect class="cls-2" x="90.73" y="73.51" width="2.11" height="9.18"/><polyline class="cls-2" points="99.38 73.52 101.49 73.52 101.49 82.69 99.2 82.69 96.21 77.34 96.21 82.69 94.09 82.69 94.09 73.55 96.39 73.55 99.38 78.88 99.38 73.52"/><polyline class="cls-2" points="107.91 73.48 107.91 75.6 106.15 75.6 106.15 82.69 104.04 82.69 104.04 75.6 102.29 75.6 102.29 73.48 107.91 73.48"/><path class="cls-2" d="M112.77,80.57a2.58,2.58,0,0,0,1-.19,2.37,2.37,0,0,0,.78-.54,2.35,2.35,0,0,0,.53-.78,2.43,2.43,0,0,0,0-1.93,2.35,2.35,0,0,0-.53-.78,2.37,2.37,0,0,0-.78-.54,2.55,2.55,0,0,0-1.93,0,2.65,2.65,0,0,0-1.32,1.32,2.55,2.55,0,0,0,0,1.93,2.65,2.65,0,0,0,1.32,1.32,2.57,2.57,0,0,0,1,.19m0-7.06a4.42,4.42,0,0,1,1.78.36A4.62,4.62,0,0,1,117,76.31a4.57,4.57,0,0,1-1,5,4.63,4.63,0,0,1-1.46,1,4.42,4.42,0,0,1-1.78.36,4.51,4.51,0,0,1-1.79-.36,4.7,4.7,0,0,1-1.45-1,4.63,4.63,0,0,1-1-1.46,4.61,4.61,0,0,1,0-3.57A4.58,4.58,0,0,1,111,73.87,4.51,4.51,0,0,1,112.77,73.51Z"/><polyline class="cls-2" points="125.66 75.63 122.23 75.63 122.23 77.02 124.94 77.02 124.94 79.13 122.23 79.13 122.23 82.69 120.12 82.69 120.12 73.52 125.66 73.52 125.66 75.63"/><path class="cls-2" d="M129.26,79.47h1.48L130,77.25l-.76,2.22m2.52,3.22-.36-1.11h-2.89l-.37,1.11h-2.24L129,73.52h2l3,9.17Z"/><path class="cls-2" d="M137.32,80.58a2,2,0,0,0,.53-.08,1.57,1.57,0,0,0,.45-.22,1.14,1.14,0,0,0,.3-.32.67.67,0,0,0,.11-.38.68.68,0,0,0-.11-.39,1,1,0,0,0-.3-.33,1.57,1.57,0,0,0-.45-.22,1.63,1.63,0,0,0-.53-.08h-.58v2h.58m-.58-5v.85h.34a.85.85,0,0,0,.5-.16.36.36,0,0,0,.18-.28q0-.12-.18-.27a.88.88,0,0,0-.51-.14Zm2.82,1.57a3.14,3.14,0,0,1,.93,1.06,2.8,2.8,0,0,1,.06,2.56,3,3,0,0,1-.75,1,3.71,3.71,0,0,1-2.48.91h-2.69V73.48l2.44,0a2.8,2.8,0,0,1,1.08.2,2.92,2.92,0,0,1,.9.54,2.62,2.62,0,0,1,.61.8,2.31,2.31,0,0,1,.22,1A2.19,2.19,0,0,1,139.56,77.17Z"/><rect class="cls-2" x="141.59" y="73.51" width="2.11" height="9.18"/><path class="cls-2" d="M148.91,80.57a2.57,2.57,0,0,0,1-.19,2.41,2.41,0,0,0,.79-.54,2.5,2.5,0,0,0,.53-.78,2.43,2.43,0,0,0,0-1.93,2.5,2.5,0,0,0-.53-.78,2.41,2.41,0,0,0-.79-.54,2.52,2.52,0,0,0-1.92,0,2.55,2.55,0,0,0-1.32,1.32,2.55,2.55,0,0,0,0,1.93A2.55,2.55,0,0,0,148,80.38a2.57,2.57,0,0,0,1,.19m0-7.06a4.47,4.47,0,0,1,1.79.36,4.55,4.55,0,0,1,2.44,2.44,4.49,4.49,0,0,1,0,3.57,4.63,4.63,0,0,1-1,1.46,4.74,4.74,0,0,1-1.46,1,4.61,4.61,0,0,1-3.57,0,4.58,4.58,0,0,1-1.45-1,4.6,4.6,0,0,1-1-5,4.58,4.58,0,0,1,2.43-2.44A4.46,4.46,0,0,1,148.9,73.51Z"/><path class="cls-2" d="M159,82.87a3.26,3.26,0,0,1-.87-.12,2.82,2.82,0,0,1-.81-.37,3.07,3.07,0,0,1-1.05-1.13,3.14,3.14,0,0,1-.38-1.52H158a1,1,0,0,0,.16.58,1.21,1.21,0,0,0,.29.28,1,1,0,0,0,.49.17,1.16,1.16,0,0,0,.51-.1.86.86,0,0,0,.28-.19,1.46,1.46,0,0,0,.17-.22.56.56,0,0,0,.06-.21,1.15,1.15,0,0,0,0-.16,1.37,1.37,0,0,0,0-.16.56.56,0,0,0-.06-.21.87.87,0,0,0-.17-.22,1.06,1.06,0,0,0-.28-.2l-.29-.11-.33-.11-.65-.22a4.31,4.31,0,0,1-.68-.34,2.67,2.67,0,0,1-.73-.69,2.74,2.74,0,0,1-.44-.89,2.9,2.9,0,0,1-.08-1,2.63,2.63,0,0,1,.28-1,2.73,2.73,0,0,1,.56-.73,2.81,2.81,0,0,1,.75-.5,2.84,2.84,0,0,1,.89-.22,3.19,3.19,0,0,1,1,.09,3.13,3.13,0,0,1,.86.36,2.66,2.66,0,0,1,.66.59,2.38,2.38,0,0,1,.43.76,2.68,2.68,0,0,1,.15.89h-2.1a.44.44,0,0,0-.18-.4,1.76,1.76,0,0,0-.32-.15l-.12,0a.74.74,0,0,0-.21,0,.69.69,0,0,0-.25.09.54.54,0,0,0-.2.22.55.55,0,0,0,0,.42.57.57,0,0,0,.25.34,1.91,1.91,0,0,0,.38.18l.45.16.43.14a4.13,4.13,0,0,1,.45.17,3,3,0,0,1,1.28,1.1,2.92,2.92,0,0,1,.47,1.61,2.88,2.88,0,0,1-.47,1.6,3,3,0,0,1-1.28,1.1,3.41,3.41,0,0,1-.66.22,3.14,3.14,0,0,1-.68.07"/><polyline class="cls-2" points="168.25 73.52 170.37 73.52 170.37 82.69 168.08 82.69 165.08 77.34 165.08 82.69 162.97 82.69 162.97 73.55 165.27 73.55 168.25 78.88 168.25 73.52"/><path class="cls-2" d="M175.49,82.68a4.7,4.7,0,0,1-1.73-.33,4.44,4.44,0,0,1-1.52-1,4.57,4.57,0,0,1-1-1.49,4.6,4.6,0,0,1,0-3.52,4.33,4.33,0,0,1,1-1.48,4.62,4.62,0,0,1,1.52-1,4.78,4.78,0,0,1,1.73-.33,4.7,4.7,0,0,1,1.73.33,4.62,4.62,0,0,1,1.52,1l-1.49,1.48a2.44,2.44,0,0,0-.82-.54,2.61,2.61,0,0,0-.94-.18,2.48,2.48,0,0,0-.93.18,2.34,2.34,0,0,0-.82.54,2.78,2.78,0,0,0-.54.82,2.45,2.45,0,0,0,0,1.89,2.82,2.82,0,0,0,.54.8,2.24,2.24,0,0,0,.82.55,2.48,2.48,0,0,0,.93.18,2.61,2.61,0,0,0,.94-.18,2.32,2.32,0,0,0,.82-.55l1.49,1.5a4.5,4.5,0,0,1-1.51,1,4.72,4.72,0,0,1-1.74.33"/><path class="cls-3" d="M150.68,27.27c-.39,0-.78,0-1.17,0a1.47,1.47,0,0,1-1.42-1c-.24-.59-.48-1.17-.73-1.75a1.47,1.47,0,0,1,.29-1.55c.26-.27.53-.53.8-.8a1,1,0,0,0,0-1.5l-1.38-1.36a1,1,0,0,0-1.47,0l-.79.78a1.44,1.44,0,0,1-1.62.3q-.85-.37-1.74-.72a1.46,1.46,0,0,1-.93-1.33V17.23a1,1,0,0,0-1.06-1.05h-1.91a1,1,0,0,0-1.06,1.05c0,.37,0,.73,0,1.1a1.51,1.51,0,0,1-.93,1.37c-.61.22-1.2.48-1.79.73a1.43,1.43,0,0,1-1.54-.28l-.81-.81a1,1,0,0,0-1.5,0l-1.36,1.36a1,1,0,0,0,0,1.48l.78.78a1.45,1.45,0,0,1,.3,1.63c-.25.58-.49,1.17-.72,1.75a1.47,1.47,0,0,1-1.33.92h-1.19a1,1,0,0,0-1,.78s0,0,0,.06v2.35a1.24,1.24,0,0,0,.4.63.9.9,0,0,0,.54.2h1.18a1.47,1.47,0,0,1,1.41,1c.23.59.48,1.18.72,1.76a1.45,1.45,0,0,1-.29,1.55l-.79.79a1,1,0,0,0,0,1.52l1.33,1.33a1,1,0,0,0,1.53,0l.77-.77a1.42,1.42,0,0,1,1.59-.28c.58.25,1.17.49,1.75.72a1.42,1.42,0,0,1,.93,1.33c0,.38,0,.75,0,1.13a1,1,0,0,0,.83,1,.93.93,0,0,0,.23,0h1.91a1,1,0,0,0,1.06-1.06c0-.43,0-.87,0-1.3a1.38,1.38,0,0,1,.89-1.14c.6-.26,1.22-.5,1.83-.76a1.45,1.45,0,0,1,1.52.29c.27.26.54.54.8.8a1,1,0,0,0,1.51,0l1.35-1.35a1,1,0,0,0,0-1.51l-.79-.78a1.46,1.46,0,0,1-.29-1.59c.26-.59.5-1.18.73-1.76a1.47,1.47,0,0,1,1.33-.93c.43,0,.86,0,1.29,0a1,1,0,0,0,.89-1q0-1,0-2.1a1,1,0,0,0-.93-1m-12.15,7a5,5,0,1,1,5-5A5,5,0,0,1,138.53,34.3ZM153.6,14.24A21.25,21.25,0,0,0,125,12.94a21.25,21.25,0,1,0-13.59,37.59A21.11,21.11,0,0,0,125,45.61,21.25,21.25,0,0,0,153.6,14.24Zm1.2,16.7c-.06.51-.13,1-.23,1.51a5.23,5.23,0,0,1-.12.54c0,.18-.08.37-.13.55l-.17.56c-.07.22-.14.44-.22.66s-.09.25-.14.37a3.33,3.33,0,0,1-.16.4,2.52,2.52,0,0,1-.12.29,4.52,4.52,0,0,1-.23.5s0,0,0,0c-.11.23-.22.45-.35.67a14.53,14.53,0,0,1-1.27,2,15.85,15.85,0,0,1-1.53,1.78,14,14,0,0,1-1.16,1,11.14,11.14,0,0,1-1.26.94c-.21.15-.44.3-.66.43s-.45.27-.68.39a13.33,13.33,0,0,1-1.43.68,6.15,6.15,0,0,1-.71.28l0,0c-.25.09-.5.18-.75.25l-.59.17a4.72,4.72,0,0,1-.54.13,4.54,4.54,0,0,1-.53.12c-.5.1-1,.18-1.51.23l-.53,0c-.37,0-.76,0-1.14,0s-.48,0-.72,0h-.32l-.47,0-.42,0c-.33,0-.66-.09-1-.15l-.39-.07c-.3-.06-.59-.13-.88-.21l-.55-.16-.27-.08-.45-.15-.26-.1-.6-.23,0,0-.72-.33h0c-.23-.1-.45-.22-.67-.34l-.65-.37-.08-.06a6.92,6.92,0,0,1-.61-.39,7,7,0,0,1-.65-.46l-.25-.18h0a16.12,16.12,0,0,1-3.15-3.24.37.37,0,0,0-.56,0l-2,2a16.31,16.31,0,1,1-1.76-24.59.26.26,0,0,1,0,.39L117,20.78a10.83,10.83,0,0,0-13.33,1.55,2.47,2.47,0,0,0,0,3.49l.11.11-2.29,2.28a2.47,2.47,0,0,0,3.49,3.5l2.29-2.29L111.87,34l-2.29,2.29a2.47,2.47,0,0,0,0,3.49,2.43,2.43,0,0,0,1.75.73,2.46,2.46,0,0,0,1.75-.73l2.28-2.28.11.1a2.45,2.45,0,0,0,3.49,0,10.81,10.81,0,0,0,1.55-13.32l6.54-6.54h0c.37-.36.75-.72,1.16-1,.2-.17.41-.33.61-.48a15.77,15.77,0,0,1,1.31-.88c.22-.14.45-.27.68-.39s.45-.24.68-.34a0,0,0,0,1,0,0q.25-.13.51-.24l.28-.12a3.47,3.47,0,0,1,.41-.16,2.67,2.67,0,0,1,.36-.14c.22-.08.44-.16.67-.22l.56-.16.55-.14.54-.12c.49-.09,1-.17,1.5-.22a4.73,4.73,0,0,1,.53,0l.36,0,.78,0,.79,0,.35,0a4.73,4.73,0,0,1,.53,0c.51,0,1,.13,1.51.22l.53.12.54.14a4.36,4.36,0,0,1,.59.17l.61.2a4.13,4.13,0,0,1,.45.17l.36.14.25.11a5.45,5.45,0,0,1,.55.25c.24.11.48.23.71.36s.46.25.68.39A14.57,14.57,0,0,1,149,16.69c.39.33.78.68,1.15,1h0a15,15,0,0,1,1.53,1.78,13.85,13.85,0,0,1,1.27,2c.13.22.24.45.35.68l0,0a3.82,3.82,0,0,1,.23.51,1.69,1.69,0,0,1,.12.28,3.47,3.47,0,0,1,.15.36c.06.16.12.31.17.47a6.4,6.4,0,0,1,.2.62c.06.18.12.37.17.55s.09.36.13.55a4.71,4.71,0,0,1,.12.54c.1.49.17,1,.23,1.5,0,.18,0,.36,0,.53s0,.23,0,.36,0,.52,0,.78,0,.77,0,1.15C154.83,30.59,154.82,30.77,154.8,30.94Zm-38,1-7.51-7.51A5.86,5.86,0,0,1,116.83,32Z"/></g></g></svg>
